P2
# test image
2 2
255
76 149 
29 255 
