P2
# test image
2 2
255
76 153 
25 254 
